<?xml version="1.0" encoding="iso-8859-1"?>
<!-- Generator: Adobe Illustrator 19.0.0, SVG Export Plug-In . SVG Version: 6.00 Build 0)  -->
<svg version="1.1" id="Layer_1" xmlns="http://www.w3.org/2000/svg" xmlns:xlink="http://www.w3.org/1999/xlink" x="0px" y="0px"
	 viewBox="0 0 512 512" style="enable-background:new 0 0 512 512;" xml:space="preserve">
<g>
	<g>
		<g>
			<path d="M401.067,153.6c-12.442,0-25.6-13.158-25.6-25.6c0-4.71-3.823-8.533-8.533-8.533S358.4,123.29,358.4,128
				c0,21.931,20.736,42.667,42.667,42.667c4.71,0,8.533-3.823,8.533-8.533C409.6,157.423,405.777,153.6,401.067,153.6z"/>
			<path d="M324.267,384c0,4.71,3.823,8.533,8.533,8.533c12.442,0,25.6,13.158,25.6,25.6c0,4.71,3.823,8.533,8.533,8.533
				s8.533-3.823,8.533-8.533c0-21.931-20.736-42.667-42.667-42.667C328.09,375.467,324.267,379.29,324.267,384z"/>
			<path d="M332.8,238.933c4.71,0,8.533-3.823,8.533-8.533s-3.823-8.533-8.533-8.533c-12.442,0-25.6-13.158-25.6-25.6
				c0-4.71-3.823-8.533-8.533-8.533s-8.533,3.823-8.533,8.533C290.133,218.197,310.869,238.933,332.8,238.933z"/>
			<path d="M298.667,128c4.71,0,8.533-3.823,8.533-8.533c0-12.442,13.158-25.6,25.6-25.6c4.71,0,8.533-3.823,8.533-8.533
				c0-4.71-3.823-8.533-8.533-8.533c-21.931,0-42.667,20.736-42.667,42.667C290.133,124.177,293.956,128,298.667,128z"/>
			<path d="M474.735,317.824c12.715-11.17,20.198-27.332,20.198-44.757c0-18.261-8.115-35.038-22.059-46.302
				c3.285-6.852,4.992-14.319,4.992-21.965c0-17.613-9.242-33.835-23.825-43.093c4.403-7.671,6.758-16.324,6.758-25.173
				c0-22.016-13.986-41.156-34.227-48.222c0.06-0.998,0.094-1.988,0.094-2.978c0-28.237-22.963-51.2-51.2-51.2
				c-6.886,0-13.594,1.399-19.866,4.096C348.271,16.009,327.16,0,302.933,0c-35.908,0-51.874,32.393-55.296,49.527
				c-0.06,0.282,0.026,0.555,0,0.845c-0.034,0.29-0.171,0.529-0.171,0.828v400.555c-1.929,24.226-22.502,43.179-46.933,43.179
				c-24.337,0-44.851-19.021-46.711-43.315c-0.333-4.446-4.292-7.885-8.755-7.885c-2.662,0-5.171,1.246-6.793,3.362
				c-6.63,8.713-16.597,13.705-27.341,13.705c-18.825,0-34.133-15.309-34.133-34.133c0-7.748,2.697-15.155,7.817-21.427
				c2.304-2.825,2.551-6.81,0.623-9.907c-1.929-3.098-5.589-4.634-9.182-3.789c-2.859,0.666-5.41,0.99-7.791,0.99
				c-18.825,0-34.133-15.309-34.133-34.133c0-14.071,8.934-26.871,22.221-31.855c3.166-1.186,5.333-4.122,5.53-7.484
				c0.196-3.371-1.604-6.545-4.608-8.09c-14.268-7.364-23.142-21.897-23.142-37.905c0-15.053,7.74-28.706,20.702-36.523
				c2.031-1.22,3.456-3.226,3.951-5.538c0.486-2.321-0.009-4.727-1.365-6.664C53.35,218.53,51.2,211.78,51.2,204.8
				c0-14.174,9.028-26.999,22.451-31.923c2.654-0.973,4.659-3.2,5.342-5.939c0.683-2.748-0.034-5.658-1.92-7.765
				c-5.675-6.34-8.806-14.379-8.806-22.639c0-16.538,11.844-30.626,28.169-33.51c2.295-0.41,4.318-1.732,5.615-3.669
				c1.289-1.937,1.732-4.318,1.229-6.588c-0.589-2.662-0.879-5.094-0.879-7.433c0-18.825,15.309-34.133,34.133-34.133
				c7.39,0,14.515,2.466,20.617,7.134c2.483,1.894,5.794,2.287,8.644,1.024c2.85-1.271,4.787-3.994,5.043-7.1
				c1.63-19.729,18.423-35.191,38.229-35.191c9.506,0,17.374,3.055,24.03,9.336c3.43,3.234,8.832,3.072,12.058-0.358
				c3.234-3.43,3.081-8.823-0.35-12.058C234.965,4.702,222.942,0,209.067,0c-24.226,0-45.338,16.009-52.668,38.229
				c-6.272-2.697-12.979-4.096-19.866-4.096c-28.237,0-51.2,22.963-51.2,51.2c0,0.99,0.034,1.98,0.094,2.978
				C65.186,95.377,51.2,114.517,51.2,136.533c0,8.849,2.355,17.502,6.758,25.173c-14.583,9.259-23.825,25.481-23.825,43.093
				c0,7.646,1.707,15.113,4.992,21.965c-13.943,11.264-22.059,28.041-22.059,46.302c0,17.425,7.484,33.587,20.198,44.757
				c-12.467,9.532-20.198,24.499-20.198,40.576c0,26.394,20.079,48.188,45.764,50.91c-2.048,5.53-3.098,11.366-3.098,17.357
				c0,28.237,22.963,51.2,51.2,51.2c10.598,0,20.676-3.217,29.15-9.114c8.695,25.207,32.759,43.247,60.45,43.247
				c33.348,0,61.449-25.958,63.974-59.085c0.008-0.111-0.043-0.213-0.043-0.324c0.008-0.119,0.068-0.205,0.068-0.324V52.156
				c1.246-5.214,9.668-35.089,38.4-35.089c19.806,0,36.599,15.462,38.229,35.191c0.256,3.106,2.193,5.828,5.043,7.1
				c2.842,1.263,6.161,0.87,8.644-1.024c6.101-4.668,13.227-7.134,20.617-7.134c18.825,0,34.133,15.309,34.133,34.133
				c0,2.338-0.29,4.77-0.879,7.433c-0.503,2.27-0.06,4.651,1.229,6.588c1.297,1.937,3.319,3.26,5.615,3.669
				c16.324,2.884,28.169,16.973,28.169,33.51c0,8.26-3.132,16.299-8.806,22.639c-1.886,2.108-2.603,5.018-1.92,7.765
				c0.683,2.739,2.688,4.966,5.342,5.939c13.423,4.924,22.451,17.749,22.451,31.923c0,6.98-2.15,13.73-6.221,19.541
				c-1.357,1.937-1.852,4.343-1.365,6.664c0.495,2.313,1.92,4.318,3.951,5.538c12.962,7.817,20.702,21.47,20.702,36.523
				c0,16.009-8.875,30.541-23.142,37.905c-3.004,1.545-4.804,4.719-4.608,8.09c0.196,3.362,2.364,6.298,5.53,7.484
				c13.286,4.984,22.221,17.784,22.221,31.855c0,18.825-15.309,34.133-34.133,34.133c-2.381,0-4.932-0.324-7.791-0.99
				c-3.593-0.845-7.253,0.691-9.182,3.789c-1.929,3.098-1.681,7.083,0.623,9.907c5.12,6.272,7.817,13.679,7.817,21.427
				c0,18.825-15.309,34.133-34.133,34.133c-10.786,0-20.727-5.052-27.29-13.867c-2.193-2.944-6.024-4.139-9.523-3.004
				c-1.254,0.418-2.364,1.109-3.268,1.988c-1.587,1.417-2.637,3.43-2.807,5.7c-1.86,24.294-22.374,43.315-46.711,43.315
				c-10.726,0-20.847-3.524-29.269-10.189c-3.686-2.927-9.062-2.304-11.989,1.391s-2.295,9.062,1.399,11.989
				C282.906,507.068,297.062,512,311.467,512c27.708,0,51.789-18.074,60.467-43.307c8.44,5.939,18.509,9.173,29.133,9.173
				c28.237,0,51.2-22.963,51.2-51.2c0-5.99-1.05-11.827-3.098-17.357c25.685-2.722,45.764-24.516,45.764-50.91
				C494.933,342.323,487.202,327.356,474.735,317.824z"/>
			<path d="M384,307.2c-4.71,0-8.533,3.823-8.533,8.533s3.823,8.533,8.533,8.533c12.442,0,25.6,13.158,25.6,25.6
				c0,4.71,3.823,8.533,8.533,8.533s8.533-3.823,8.533-8.533C426.667,327.936,405.931,307.2,384,307.2z"/>
			<path d="M418.133,204.8c-4.71,0-8.533,3.823-8.533,8.533c0,12.442-13.158,25.6-25.6,25.6c-4.71,0-8.533,3.823-8.533,8.533
				S379.29,256,384,256c21.931,0,42.667-20.736,42.667-42.667C426.667,208.623,422.844,204.8,418.133,204.8z"/>
			<path d="M213.333,187.733c-4.71,0-8.533,3.823-8.533,8.533c0,12.442-13.158,25.6-25.6,25.6c-4.71,0-8.533,3.823-8.533,8.533
				s3.823,8.533,8.533,8.533c21.931,0,42.667-20.736,42.667-42.667C221.867,191.556,218.044,187.733,213.333,187.733z"/>
			<path d="M204.8,332.8c0,4.71,3.823,8.533,8.533,8.533s8.533-3.823,8.533-8.533c0-21.931-20.736-42.667-42.667-42.667
				c-4.71,0-8.533,3.823-8.533,8.533s3.823,8.533,8.533,8.533C191.642,307.2,204.8,320.358,204.8,332.8z"/>
			<path d="M145.067,426.667c4.71,0,8.533-3.823,8.533-8.533c0-12.442,13.158-25.6,25.6-25.6c4.71,0,8.533-3.823,8.533-8.533
				s-3.823-8.533-8.533-8.533c-21.931,0-42.667,20.736-42.667,42.667C136.533,422.844,140.356,426.667,145.067,426.667z"/>
			<path d="M179.2,76.8c-4.71,0-8.533,3.823-8.533,8.533c0,4.71,3.823,8.533,8.533,8.533c12.442,0,25.6,13.158,25.6,25.6
				c0,4.71,3.823,8.533,8.533,8.533s8.533-3.823,8.533-8.533C221.867,97.536,201.131,76.8,179.2,76.8z"/>
			<path d="M93.867,204.8c-4.71,0-8.533,3.823-8.533,8.533C85.333,235.264,106.069,256,128,256c4.71,0,8.533-3.823,8.533-8.533
				s-3.823-8.533-8.533-8.533c-12.442,0-25.6-13.158-25.6-25.6C102.4,208.623,98.577,204.8,93.867,204.8z"/>
			<path d="M298.667,341.333c4.71,0,8.533-3.823,8.533-8.533c0-12.442,13.158-25.6,25.6-25.6c4.71,0,8.533-3.823,8.533-8.533
				s-3.823-8.533-8.533-8.533c-21.931,0-42.667,20.736-42.667,42.667C290.133,337.51,293.956,341.333,298.667,341.333z"/>
			<path d="M153.6,128c0-4.71-3.823-8.533-8.533-8.533s-8.533,3.823-8.533,8.533c0,12.442-13.158,25.6-25.6,25.6
				c-4.71,0-8.533,3.823-8.533,8.533c0,4.71,3.823,8.533,8.533,8.533C132.864,170.667,153.6,149.931,153.6,128z"/>
			<path d="M93.867,358.4c4.71,0,8.533-3.823,8.533-8.533c0-12.442,13.158-25.6,25.6-25.6c4.71,0,8.533-3.823,8.533-8.533
				S132.71,307.2,128,307.2c-21.931,0-42.667,20.736-42.667,42.667C85.333,354.577,89.156,358.4,93.867,358.4z"/>
		</g>
	</g>
</g>
<g>
</g>
<g>
</g>
<g>
</g>
<g>
</g>
<g>
</g>
<g>
</g>
<g>
</g>
<g>
</g>
<g>
</g>
<g>
</g>
<g>
</g>
<g>
</g>
<g>
</g>
<g>
</g>
<g>
</g>
</svg>
